<svg class="icon icon--download" viewBox="0 0 100 100" xmlns="http://www.w3.org/2000/svg">
	<g stroke="#fff" stroke-width="6" fill="none" stroke-linecap="round">
		<!-- <path d="
			M 20,20
			H 10
			C 3,20 3,20 3,27
			V 90
			C 3,97 3,97 10,97
			H 90
			C 97,97 97,97 97,90
			V 27
			C 97,20 97,20 90,20
			H 80
		" pathLength="1" /> -->
		<path d="
			M 3,50
			C 3,50 3,50 3,57
			V 90
			C 3,97 3,97 10,97
			H 90
			C 97,97 97,97 97,90
			V 50
		" pathLength="1" />
		<path d="
			M 50,3
			V 50
			M 50,50
			l -15,-15
			M 50,50
			l 15,-15
		" pathLength="1" />
	</g>
	<style>
	.icon--download path {
		transition: all .4s ease-in-out;
	}
	.icon--download path:nth-of-type(2) {
		transition-delay: .3s;
	}
	button:hover .icon--download path,
	button:focus .icon--download path {
		stroke-dasharray: 1;
		stroke-dashoffset: 2;
	}
	button:hover .icon--download path:nth-of-type(2),
	button:focus .icon--download path:nth-of-type(2) {
		stroke-dashoffset: -2;
	}
	</style>
</svg>